{
 "accessors": [
  {
   "componentType": 5126,
   "type": "VEC3",
   "count": 45048,
   "max": [
    42.23889923095703,
    143.10580444335938,
    31.558000564575195
   ],
   "min": [
    -42.91339874267578,
    0.007899999618530273,
    -35.0265007019043
   ],
   "bufferView": 3
  },
  {
   "componentType": 5126,
   "type": "VEC3",
   "count": 45048,
   "bufferView": 4
  },
  {
   "componentType": 5126,
   "type": "VEC2",
   "count": 45048,
   "bufferView": 5
  },
  {
   "componentType": 5123,
   "type": "SCALAR",
   "count": 137232,
   "bufferView": 6
  }
 ],
 "asset": {
  "version": "2.0",
  "generator": "clara.io"
 },
 "bufferViews": [
  {
   "buffer": 0,
   "byteOffset": 0,
   "byteLength": 107513
  },
  {
   "buffer": 0,
   "byteOffset": 107516,
   "byteLength": 329732
  },
  {
   "buffer": 0,
   "byteOffset": 437248,
   "byteLength": 482434
  },
  {
   "buffer": 0,
   "byteOffset": 919684,
   "byteLength": 540576,
   "target": 34962,
   "byteStride": 12
  },
  {
   "buffer": 0,
   "byteOffset": 1460260,
   "byteLength": 540576,
   "target": 34962,
   "byteStride": 12
  },
  {
   "buffer": 0,
   "byteOffset": 2000836,
   "byteLength": 360384,
   "target": 34962,
   "byteStride": 8
  },
  {
   "buffer": 0,
   "byteOffset": 2361220,
   "byteLength": 274464,
   "target": 34963
  }
 ],
 "buffers": [
  {
   "byteLength": 2635684,
   "uri": "data:application/octet-stream;base64,"
  }
 ],
 "images": [
  {
   "bufferView": 0,
   "mimeType": "image/jpeg"
  },
  {
   "bufferView": 1,
   "mimeType": "image/jpeg"
  },
  {
   "bufferView": 2,
   "mimeType": "image/jpeg"
  }
 ],
 "materials": [
  {
   "pbrMetallicRoughness": {
    "baseColorFactor": [
     0.6901960784313725,
     0.6901960784313725,
     0.6901960784313725,
     1
    ],
    "baseColorTexture": {
     "index": 2,
     "texCoord": 0
    },
    "roughnessFactor": 0.25,
    "metallicFactor": 0
   },
   "normalTexture": {
    "index": 0
   },
   "emissiveTexture": {
    "index": 1
   }
  }
 ],
 "meshes": [
  {
   "primitives": [
    {
     "indices": 3,
     "material": 0,
     "mode": 4,
     "attributes": {
      "POSITION": 0,
      "NORMAL": 1,
      "TEXCOORD_0": 2
     }
    }
   ]
  }
 ],
 "nodes": [
  {
   "name": "R2-Unit"
  },
  {
   "name": "LightPreset",
   "translation": [
    -0.337249755859375,
    71.55685424804688,
    -1.7342500686645508
   ]
  },
  {
   "name": "Merged_Meshes",
   "translation": [
    -9.962300300598145,
    0,
    0
   ],
   "mesh": 0
  }
 ],
 "samplers": [
  {
   "magFilter": 9729,
   "minFilter": 9987,
   "wrapS": 10497,
   "wrapT": 10497
  }
 ],
 "scene": 0,
 "scenes": [
  {
   "nodes": [
    0,
    1,
    2
   ]
  }
 ],
 "textures": [
  {
   "sampler": 0,
   "source": 0
  },
  {
   "sampler": 0,
   "source": 1
  },
  {
   "sampler": 0,
   "source": 2
  }
 ]
}